<?xml version="1.0" ?><!DOCTYPE svg  PUBLIC '-//W3C//DTD SVG 1.1//EN'  'http://www.w3.org/Graphics/SVG/1.1/DTD/svg11.dtd'><svg enable-background="new 0 0 24 24" height="24px" id="Layer_1" version="1.1" viewBox="0 0 24 24" width="24px" xml:space="preserve" xmlns="http://www.w3.org/2000/svg" xmlns:xlink="http://www.w3.org/1999/xlink"><path d="M23.7,7.6l-7.3-7.3c-0.4-0.4-1.1-0.4-1.5,0L0.4,14.9c-0.4,0.4-0.4,1.1,0,1.5l7.3,7.3C8,24,8.7,24,9.1,23.6L23.7,9  C24.1,8.6,24.1,8,23.7,7.6z M8.4,21.4l-5.8-5.8l0.7-0.7l5.8,5.8L8.4,21.4z M9.8,20L4,14.1l0.7-0.7l5.8,5.8L9.8,20z M11.3,18.5  l-5.8-5.8l0.7-0.7l5.8,5.8L11.3,18.5z M12.7,17l-5.8-5.8l0.7-0.7l5.8,5.8L12.7,17z M14.2,15.6L8.4,9.8l7.3-7.3l5.8,5.8L14.2,15.6z"/></svg>